<svg width="51" height="47" viewBox="0 0 51 47" fill="none" xmlns="http://www.w3.org/2000/svg">
<path d="M19.0156 11.3042C19.9922 12.1695 20.4805 13.3933 20.4805 14.9756L20.4796 46.84H29.8262V42.3644C29.833 41.062 30.3507 39.9429 31.3233 39.0072C32.3028 38.0649 33.4745 37.5937 34.8385 37.5937C36.4504 37.5937 37.7461 38.0277 38.7256 38.8956C39.6607 39.7242 40.1495 40.8804 40.1919 42.3644L40.2217 46.84H49.5669L49.5671 23.9578C49.5671 22.4914 49.9865 21.3329 50.8252 20.4823L44.4063 13.6142C43.1163 14.8308 42.0985 16.3255 41.3526 18.0983C40.6239 19.8305 40.2462 21.7129 40.2217 23.7453L40.2215 29.1075C38.5328 28.5158 36.7385 28.2199 34.8385 28.2199C33.0836 28.2199 31.4128 28.5051 29.8262 29.0753L29.826 14.9756C29.826 12.8618 29.449 10.9086 28.6949 9.11613C27.9409 7.32367 26.9086 5.81552 25.5983 4.5917C24.2879 3.35552 22.7303 2.3913 20.9255 1.69904C19.1207 1.00678 17.1922 0.660645 15.1402 0.660645C13.1252 0.660645 11.2215 1.03768 9.42902 1.79175C7.64892 2.53346 6.12842 3.54095 4.86751 4.81422C3.61897 6.07512 2.63002 7.57708 1.90067 9.3201C1.18369 11.0508 0.825195 12.8741 0.825195 14.7902C0.825195 16.4591 1.08479 18.0414 1.60399 19.5371C2.12319 21.0329 2.84017 22.3433 3.75495 23.4682C4.66972 24.5808 5.72666 25.5512 6.92575 26.3794C8.13721 27.1953 9.44757 27.8134 10.8568 28.2337C12.2784 28.654 13.7371 28.8641 15.2329 28.8641C16.2115 28.8641 17.1732 28.7538 18.1179 28.533V19.5151C17.3288 19.7894 16.4908 19.9265 15.6038 19.9265C15.0227 19.9265 14.4726 19.8709 13.9535 19.7597C13.4466 19.6484 12.9583 19.4692 12.4886 19.2219C12.0188 18.9623 11.6109 18.6409 11.2648 18.2577C10.931 17.8621 10.6652 17.3738 10.4674 16.7928C10.2696 16.1995 10.1707 15.5319 10.1707 14.7902C10.1707 13.4799 10.659 12.3549 11.6356 11.4154C12.6122 10.4759 13.7804 10.0062 15.1402 10.0062C16.7472 10.0062 18.039 10.4388 19.0156 11.3042Z" fill="#FF6768"/>
</svg>
